<svg xmlns="http://www.w3.org/2000/svg" width="32" height="32" viewBox="0 0 136.227 163.84" fill="none" xmlns:v="https://vecta.io/nano"><path d="M114.021 152.978c-6.316 4.563-38.305-15.687-46.096-15.707s-39.887 20.062-46.178 15.465 3.082-41.277.694-48.694S-8.966 72.307-6.538 64.903s40.21-9.824 46.525-14.388 20.477-39.675 28.269-39.654 21.769 35.206 28.06 39.802 44.061 7.215 46.449 14.631-26.756 31.582-29.183 38.987 6.754 44.134.438 48.697z" fill="#ffe600"/><path d="M-11.056 63.18l-.08.21c-.87 2.654-.229 4.904.56 6.84s1.908 3.755 3.24 5.65c2.664 3.789 6.24 7.835 9.91 11.85l10.35 11.3c2.916 3.322 4.953 6.622 4.91 6.49s.23 3.741-.2 8.14-1.173 9.818-1.81 15.22-1.178 10.768-1.13 15.4c.024 2.316.181 4.437.67 6.47s1.265 4.243 3.52 5.89 4.595 1.722 6.68 1.57 4.166-.659 6.38-1.34c4.427-1.363 9.377-3.501 14.33-5.75l13.94-6.36c4.06-1.747 7.829-2.66 7.69-2.66s3.629.932 7.68 2.7 8.979 4.155 13.92 6.43 9.87 4.444 14.29 5.83c2.21.693 4.286 1.207 6.37 1.37s4.426.095 6.69-1.54 3.06-3.83 3.56-5.86.664-4.154.7-6.47c.072-4.632-.441-10.005-1.05-15.41l-1.74-15.23c-.406-4.401-.107-8.272-.15-8.14s2.007-3.164 4.94-6.47 6.729-7.244 10.42-11.24 7.276-8.025 9.96-11.8c1.342-1.888 2.471-3.698 3.27-5.63s1.456-4.172.6-6.83-2.693-4.098-4.47-5.2-3.759-1.92-5.95-2.67c-.783-.268-1.616-.512-2.45-.76l-31.31 3.02 1.64.36c4.615 1.042 10.012 2.035 15.21 3.1s10.213 2.219 13.78 3.44c1.784.61 3.199 1.252 3.97 1.73.041.025.024.026.06.05-.013.034-.005.024-.02.06-.347.838-1.128 2.193-2.22 3.73-2.185 3.073-5.58 6.942-9.18 10.84l-10.54 11.38c-3.139 3.539-5.643 6.046-6.9 9.88s-.725 7.329-.29 12.04 1.156 10.147 1.75 15.42 1.049 10.41.99 14.18c-.029 1.885-.203 3.429-.42 4.31-.011.044-.009.031-.02.07-.039-.002-.027.003-.07 0-.904-.071-2.431-.396-4.23-.96-3.598-1.128-8.33-3.171-13.15-5.39l-14.09-6.5c-4.336-1.892-7.485-3.499-11.52-3.51s-7.194 1.581-11.54 3.45-9.299 4.236-14.13 6.43-9.566 4.211-13.17 5.32c-1.802.555-3.325.864-4.23.93-.05.004-.036-.002-.08 0-.011-.039-.01-.026-.02-.07-.212-.882-.371-2.425-.39-4.31-.039-3.77.439-8.9 1.06-14.17l1.83-15.41c.46-4.708 1.017-8.209-.22-12.05s-3.729-6.355-6.85-9.91-6.9-7.523-10.48-11.44-6.961-7.806-9.13-10.89c-1.084-1.542-1.858-2.89-2.2-3.73-.015-.037-.007-.026-.02-.06.036-.024.018-.025.06-.05.773-.474 2.193-1.119 3.98-1.72.662-.223 1.426-.432 2.18-.65l-15.64-.92z" fill="#ffd208"/><path d="M68.264 6.02c-2.793-.007-4.732 1.301-6.33 2.65s-2.98 2.978-4.37 4.83c-2.781 3.705-5.525 8.349-8.21 13.08l-7.54 13.34c-2.258 3.799-4.773 6.751-4.66 6.67s-3.484 1.379-7.8 2.33-9.706 1.907-15.04 2.97-10.599 2.213-14.99 3.69c-2.195.738-4.178 1.547-5.96 2.64s-3.63 2.516-4.5 5.17c-.398 1.214-.454 2.336-.35 3.39l10.47-.59c.818-.435 1.944-.943 3.42-1.44 3.574-1.202 8.596-2.333 13.8-3.37l15.23-3.01c4.62-1.018 8.11-1.577 11.38-3.94s4.893-5.503 7.31-9.57 5.031-8.895 7.65-13.51 5.267-9.024 7.53-12.04c1.132-1.508 2.187-2.665 2.88-3.25.034-.029.028-.015.06-.04.029.023.019.014.05.04.69.589 1.736 1.746 2.86 3.26 2.248 3.027 4.875 7.461 7.47 12.09l7.57 13.54c2.396 4.079 4.002 7.23 7.26 9.61s6.746 3.002 11.37 4c7.377 1.591 27.06 5.232 32.848 8.149l8.526-5.211c-2.183-3.418-7.574-4.984-9.253-5.558-4.383-1.5-9.641-2.669-14.97-3.76l-15.02-3.06c-4.311-.973-7.902-2.452-7.79-2.37s-2.382-2.889-4.62-6.7-4.82-8.625-7.48-13.37-5.379-9.411-8.14-13.13c-1.381-1.86-2.76-3.493-4.35-4.85s-3.517-2.673-6.31-2.68z" fill="#ffff38"/><path d="M68.244 15.18c-2.457-.007-4.164 1.143-5.57 2.33s-2.617 2.62-3.84 4.25c-2.447 3.26-4.868 7.347-7.23 11.51l-6.63 11.74c-1.987 3.343-4.199 5.942-4.1 5.87s-3.062 1.213-6.86 2.05-8.546 1.674-13.24 2.61-9.327 1.951-13.19 3.25c-1.932.65-3.672 1.358-5.24 2.32s-3.195 2.215-3.96 4.55-.204 4.316.49 6.02l7.88-3.21c-.015-.036-.008-.027-.02-.06.033-.022.022-.017.06-.04.68-.417 1.928-.981 3.5-1.51 3.145-1.058 7.561-2.057 12.14-2.97l13.41-2.65c4.065-.896 7.132-1.391 10.01-3.47s4.303-4.841 6.43-8.42 4.425-7.819 6.73-11.88 4.638-7.946 6.63-10.6c.996-1.327 1.92-2.345 2.53-2.86.028-.023.024-.009.05-.03.026.021.022.006.05.03.607.518 1.531 1.538 2.52 2.87 1.978 2.664 4.287 6.567 6.57 10.64l6.66 11.91c2.108 3.59 3.523 6.366 6.39 8.46s5.949 2.603 10.01 3.52 8.806 1.793 13.38 2.73c5.074 1.039 8.784 1.296 14.42.73l5.7-3.42c-1.563-.97-3.312-1.69-5.24-2.35-3.857-1.32-8.481-2.34-13.17-3.3l-13.22-2.7c-3.794-.857-6.949-2.152-6.85-2.08s-2.101-2.546-4.07-5.9-4.239-7.585-6.58-11.76-4.73-8.287-7.16-11.56c-1.215-1.636-2.43-3.076-3.83-4.27s-3.103-2.344-5.56-2.35z" fill="#ffffe9"/></svg>