<?xml version="1.0" encoding="UTF-8" standalone="no"?>
<svg
   width="32"
   height="32"
   viewBox="0 0 136.22664 163.84"
   fill="none"
   version="1.1"
   id="svg142"
   sodipodi:docname="files.svg"
   inkscape:version="1.2.2 (732a01da63, 2022-12-09)"
   xmlns:inkscape="http://www.inkscape.org/namespaces/inkscape"
   xmlns:sodipodi="http://sodipodi.sourceforge.net/DTD/sodipodi-0.dtd"
   xmlns="http://www.w3.org/2000/svg"
   xmlns:svg="http://www.w3.org/2000/svg">
  <defs
     id="defs146" />
  <sodipodi:namedview
     id="namedview144"
     pagecolor="#ffffff"
     bordercolor="#666666"
     borderopacity="1.0"
     inkscape:showpageshadow="2"
     inkscape:pageopacity="0.0"
     inkscape:pagecheckerboard="0"
     inkscape:deskcolor="#d1d1d1"
     showgrid="false"
     inkscape:zoom="29.125"
     inkscape:cx="15.982833"
     inkscape:cy="16"
     inkscape:window-width="1920"
     inkscape:window-height="1177"
     inkscape:window-x="-8"
     inkscape:window-y="-2"
     inkscape:window-maximized="1"
     inkscape:current-layer="svg142" />
  <path
     d="m 128.39725,37.336365 c -0.007,-1.572358 -1.04978,-2.951839 -2.56079,-3.386848 L 101.78632,10.713633 C 101.11696,9.8957266 100.1172,9.4196454 99.060317,9.415539 H 37.695866 c -3.493343,0 -6.32526,2.831915 -6.32526,6.325259 V 33.501086 H 14.153159 c -3.493344,0 -6.3252588,2.831914 -6.3252588,6.325258 V 148.09919 c 0,3.49335 2.8319148,6.32527 6.3252588,6.32527 h 84.42332 c 3.479511,-0.0196 6.289921,-2.8457 6.289861,-6.32527 V 130.3979 h 17.21745 c 3.4795,-0.0195 6.28992,-2.84568 6.28986,-6.32525 V 37.395368 Z M 38.403917,33.501086 V 16.496052 H 95.52006 v 21.524762 c 0,1.95523 1.585031,3.540257 3.540257,3.540257 H 121.32853 V 123.27019 H 104.80734 V 61.41011 c -0.007,-1.572355 -1.04979,-2.951838 -2.56079,-3.386845 L 78.267209,34.799181 c -0.659195,-0.824273 -1.658763,-1.302329 -2.714197,-1.298095 z m 40.66575,12.367296 14.054819,12.721323 H 79.069667 Z M 14.908414,147.35574 V 40.534395 h 57.116143 v 21.571967 c 0,1.955229 1.585025,3.540255 3.540256,3.540255 h 22.256415 v 81.709123 z m 13.37037,-22.66944 c 0.470083,-0.54827 1.154162,-0.86664 1.876334,-0.87326 h 41.480009 c 0.723745,0.004 1.411282,0.31701 1.888137,0.86146 0.486161,0.5545 0.750856,1.26874 0.743455,2.00614 8.45e-4,0.73836 -0.267693,1.45166 -0.755256,2.00614 -0.473816,0.54334 -1.155542,0.86061 -1.876336,0.87325 H 30.155118 c -0.72341,-0.005 -1.410353,-0.31824 -1.888136,-0.86144 -1.000719,-1.15024 -1.000719,-2.86206 0,-4.01229 z m 0,-24.852609 c 0.465458,-0.547701 1.145791,-0.866338 1.864533,-0.873254 h 53.056649 c 0.722173,0.0064 1.406255,0.324991 1.876336,0.873254 0.487563,0.554489 0.756101,1.267799 0.755256,2.006159 0.0074,0.7374 -0.257293,1.45164 -0.743454,2.00614 -0.476858,0.54444 -1.164392,0.85813 -1.888138,0.86147 H 30.178722 c -0.719959,-0.005 -1.403133,-0.31884 -1.876337,-0.86147 -1.016363,-1.14434 -1.016363,-2.86795 0,-4.012299 z m 0,-25.277427 c 0.475046,-0.540156 1.15705,-0.853278 1.876334,-0.861463 h 24.533981 c 0.722218,-0.0012 1.410049,0.308338 1.888137,0.849663 0.997366,1.155965 0.997366,2.868124 0,4.024091 -0.475046,0.540155 -1.157049,0.853277 -1.876337,0.861461 H 30.155118 c -0.72189,-3.37e-4 -1.409125,-0.309591 -1.888136,-0.849661 -0.997368,-1.155967 -0.997368,-2.868124 0,-4.024091 z m 74.309986,-52.773428 14.05482,12.721321 h -14.05482 z"
     fill="#d4d4d4"
     id="path140"
     style="stroke:#d4d4d4;stroke-width:3.47108;stroke-dasharray:none;stroke-opacity:1" />
</svg>
