<svg xmlns="http://www.w3.org/2000/svg" width="181.417" height="181.417" viewBox="0 0 41.297 41.297" xmlns:v="https://vecta.io/nano"><path d="M16.605 27.356c-.194-.416-1.134-1.83-1.314-2.294s-1.083-1.627-1.107-2.59c-.045-1.823 2.877-2.084 3.852-.635.406.602.77 2.478.972 3.294s.46 1.727.413 2.568c-.466-.018-1.765-.072-2.816-.344zm5.276.321l1.023-5.07c.382-1.566 2.438-2.289 3.639-1.271.923.783.251 1.992-.112 2.741l-1.409 3.174c-.676.219-2.185.51-3.141.427zM8.23 24.141c-2.17-2.007-3.163-3.067-5.312-5.812-.974-2.013 2.348-2.026 2.05-.018.705 1.526 2.603.743 3.885 1.125 1.959.595 2.202 2.376 2.538 3l2.471 4.188-5.632-2.483zm18.657 2.787l3.664-6.001c.737-1.195 2.078-1.796 3.42-1.628 1.505.359 2.549-.815 2.755-2.18 1.415-1.401 2.278.772 1.089 2.004l-4.784 4.759c-1.101.561-5.034 2.943-6.144 3.046zm-6.83-5.895c-1.433-.624-2.863-1.71-4.532-1.202-1.28.312-3.043 1.431-4.043-.014-1.009-1.424-2.913-1.918-4.55-1.426-1.746.449-.918-2.772-2.93-2.265-1.79.47-2.152-2.269-.466-2.52 1.386-.317 2.466-1.609 4.038-1.577.682-.203 1.551.074 2.06-.535.993-.638 3.032-1.83 3.932-.945 1.108 1.839-1.899.928-2.714 1.978-2.351.156-4.648.928-6.621 2.218.853.396 2.714.473 3.37 1.701 1.159.664 3.01.046 4.284.952.828.152 1.1 1.392 1.971 1.18 1.968-.334 4.099-.599 5.934.407 1.232.766 2.345-.611 3.594-.619 1.399-.183 2.792.021 4.166.242.863-.044 1.279-1.243 2.212-1.363 1.162-.601 2.479-.476 3.741-.494.705-1.342 2.306-1.753 3.706-1.88-1.5-1.104-3.32-1.79-5.148-2.142-1.403-.001-2.564-.863-3.945-.997-1.325.195-.399-2.276.673-1.439 1.327.086 2.488.838 3.47 1.619 1.689.052 3.515.305 4.783 1.524 1.64-.245 2.723 2.526.716 2.648-1.507-.306-2.248.901-2.465 2.153-1.438.429-3.446-.611-4.744.78-.852 1.357-2.504 2.029-3.94 1.083-1.495-.703-3.222-.32-4.549.565-.61.351-1.307.543-2.007.368z" fill="#fff"/><path d="M9.327 29.642q.089 0 .154.065.065.065.065.154v.859q0 .089-.065.154-.065.065-.154.065H7.901v4.158q0 .089-.065.154-.065.065-.154.065H6.62q-.089 0-.154-.065-.065-.065-.065-.154v-4.158H4.975q-.089 0-.154-.065-.065-.065-.065-.154v-.859q0-.089.065-.154.065-.065.154-.065zm3.266 2.918q0-.446-.47-.446-.267 0-.438.146-.065.065-.13.081-.065.016-.162.016h-1.029q-.081 0-.138-.049-.049-.049-.041-.13.024-.251.276-.519.259-.276.697-.454.438-.186.964-.186.964 0 1.443.438.486.438.486 1.183v2.456q0 .089-.065.154-.065.065-.154.065h-1.021q-.089 0-.154-.065-.065-.065-.065-.154v-.227q-.211.259-.502.397-.292.13-.738.13-.681 0-1.07-.357-.381-.357-.381-.924 0-.543.421-.891.421-.349 1.321-.502zm-.746 1.078q-.227.04-.357.146-.13.097-.13.243 0 .276.389.276.357 0 .6-.227.243-.227.243-.551zm6.046-2.537q.089 0 .154.065.065.065.065.154v.819q0 .089-.065.154-.065.065-.154.065h-.738q-.365 0-.559.195-.186.186-.186.551v1.994q0 .089-.065.154-.065.065-.154.065H15.17q-.089 0-.154-.065-.065-.065-.065-.154V31.32q0-.089.065-.154.065-.065.154-.065h.94q.089 0 .154.065.065.065.065.154v.186q.421-.405 1.078-.405zm2.715 2.569q0 .389.348.389h.648q.089 0 .154.065.065.065.065.154v.819q0 .089-.065.154-.065.065-.154.065h-.77q-.77 0-1.232-.43-.454-.43-.454-1.167v-1.362h-.6q-.089 0-.154-.065-.065-.065-.065-.154v-.819q0-.089.065-.154.065-.065.154-.065h.6V29.78q0-.089.065-.154.065-.065.154-.065h1.021q.089 0 .154.065.065.065.065.154v1.321h.916q.089 0 .154.065.065.065.065.154v.819q0 .089-.065.154-.065.065-.154.065h-.916zm5.973.349q.089 0 .154.065.065.065.065.154v.859q0 .089-.065.154-.065.065-.154.065h-3.752q-.089 0-.154-.065-.065-.065-.065-.154v-5.236q0-.089.065-.154.065-.065.154-.065h1.062q.089 0 .154.065.065.065.065.154v4.158zm3.234-1.459q0-.446-.47-.446-.267 0-.438.146-.065.065-.13.081-.065.016-.162.016h-1.029q-.081 0-.138-.049-.049-.049-.041-.13.024-.251.276-.519.259-.276.697-.454.438-.186.964-.186.964 0 1.443.438.486.438.486 1.183v2.456q0 .089-.065.154-.065.065-.154.065h-1.021q-.089 0-.154-.065-.065-.065-.065-.154v-.227q-.211.259-.502.397-.292.13-.738.13-.681 0-1.07-.357-.381-.357-.381-.924 0-.543.421-.891.421-.349 1.321-.502zm-.746 1.078q-.227.04-.357.146-.13.097-.13.243 0 .276.389.276.357 0 .6-.227.243-.227.243-.551zm7.464-.754q.008.081.008.324 0 .251-.008.332-.032.916-.543 1.386-.502.47-1.272.47-.332 0-.551-.073-.211-.065-.332-.162-.113-.097-.243-.251v.186q0 .089-.065.154-.065.065-.154.065h-.981q-.089 0-.154-.065-.065-.065-.065-.154V29.78q0-.089.065-.154.065-.065.154-.065h1.021q.089 0 .154.065.065.065.065.154v1.726q.146-.195.405-.34.259-.146.681-.146.778 0 1.281.478.502.47.535 1.386zm-2.18-.608q-.332 0-.511.195-.178.186-.211.454-.016.162-.016.284 0 .122.016.284.041.276.211.462.178.186.511.186.357 0 .527-.195.178-.195.203-.511.016-.162.016-.227 0-.065-.016-.227-.024-.316-.203-.511-.17-.195-.527-.195z" fill="#fefefe"/><path d="M20.486 5.9c-1.479 0-2.67.595-2.67 1.335v1.335H16.48c-.74 0-1.335 1.191-1.335 2.671s.596 2.67 1.335 2.67h.86c0-.679.048-1.198.161-1.607s.301-.716.57-.919c.538-.405 1.279-.382 2.281-.382 1.135 0 1.857-.025 2.236-.291.19-.133.324-.324.421-.664s.147-.822.147-1.478h.475c0 .679-.047 1.198-.165 1.609s-.319.72-.606.921c-.574.402-1.374.377-2.508.377-1.001 0-1.647.024-1.995.286-.174.131-.304.325-.398.667s-.143.824-.143 1.48h0v1.335c0 .74 1.191 1.335 2.67 1.335s2.671-.596 2.671-1.335v-.903h-2.67v-.432h2.67 0 1.335c.74 0 1.335-1.191 1.335-2.67s-.596-2.671-1.335-2.671h-1.335V7.235c0-.74-1.191-1.335-2.671-1.335zm-1.013.841c.273 0 .494.221.494.494s-.221.494-.494.494-.494-.221-.494-.494.221-.494.494-.494zm-1.657 1.398h2.67v.432h-2.67zm3.684 6.614c.273 0 .494.221.494.494s-.221.494-.494.494-.494-.221-.494-.494.221-.494.494-.494z" fill="#fff"/></svg>