<svg xmlns="http://www.w3.org/2000/svg" width="32" height="32" viewBox="0 0 136.227 163.84" fill="#d4d4d4" xmlns:v="https://vecta.io/nano"><path d="M2.314 18.35a5.225 5.225 0 0 0-5.22 5.22v114.74a5.225 5.225 0 0 0 5.22 5.23h114.2a5.225 5.225 0 0 0 4.94-3.82 5.225 5.225 0 0 0 .16-.33l21.23-79.23a5.225 5.225 0 0 0-5.05-6.58h-16.06V40.52a5.225 5.225 0 0 0-5.22-5.23h-55.43l-8.27-14.33a5.225 5.225 0 0 0-4.52-2.61H2.314zm5.23 10.45h37.73l8.27 14.33a5.225 5.225 0 0 0 4.53 2.61h53.21v7.84h-86.84a5.225 5.225 0 0 0-.41.08 5.225 5.225 0 0 0-5.45 3.8l-11.04 41.2V28.8zm20.09 35.23h103.35l-18.5 69.06H9.134l18.5-69.06zm46.46 8.53a5.225 5.225 0 0 0-5.23 5.22v15.56h-15.55a5.225 5.225 0 1 0 0 10.45h15.55v15.55a5.225 5.225 0 1 0 10.45 0v-15.55h15.56a5.225 5.225 0 1 0 0-10.45h-15.56V77.78a5.225 5.225 0 0 0-5.22-5.22z"/></svg>