<?xml version="1.0" encoding="UTF-8" standalone="no"?>
<!-- Created with Inkscape (http://www.inkscape.org/) -->

<svg
   width="256"
   height="256"
   viewBox="0 0 58.275331 58.275331"
   version="1.1"
   id="svg5"
   xml:space="preserve"
   inkscape:version="1.3.2 (091e20e, 2023-11-25, custom)"
   sodipodi:docname="favicon.svg"
   inkscape:export-filename="favicon256.png"
   inkscape:export-xdpi="96"
   inkscape:export-ydpi="96"
   xmlns:inkscape="http://www.inkscape.org/namespaces/inkscape"
   xmlns:sodipodi="http://sodipodi.sourceforge.net/DTD/sodipodi-0.dtd"
   xmlns="http://www.w3.org/2000/svg"
   xmlns:svg="http://www.w3.org/2000/svg"><sodipodi:namedview
     id="namedview7"
     pagecolor="#ffffff"
     bordercolor="#666666"
     borderopacity="1.0"
     inkscape:showpageshadow="2"
     inkscape:pageopacity="0.0"
     inkscape:pagecheckerboard="0"
     inkscape:deskcolor="#d1d1d1"
     inkscape:document-units="px"
     showgrid="false"
     inkscape:zoom="3.4804688"
     inkscape:cx="128.28732"
     inkscape:cy="128"
     inkscape:window-width="1920"
     inkscape:window-height="1129"
     inkscape:window-x="1912"
     inkscape:window-y="-8"
     inkscape:window-maximized="1"
     inkscape:current-layer="layer1"
     showguides="true" /><defs
     id="defs2" /><g
     inkscape:label="Layer 1"
     inkscape:groupmode="layer"
     id="layer1"
     transform="translate(-30.61314,-79.421509)"><rect
       style="fill:#0074c2;fill-opacity:1;stroke-width:4.06136;stroke-linecap:square"
       id="rect2"
       width="58.275333"
       height="58.275333"
       x="30.61314"
       y="79.421501"
       rx="9.7125559"
       ry="9.7125559" /><path
       style="fill:#ffffff;fill-opacity:1;stroke-width:0.0900627"
       d="m 54.125142,123.24484 c -0.269989,-0.57922 -1.577049,-2.54579 -1.827818,-3.19146 -0.250767,-0.64565 -1.507343,-2.2631 -1.540319,-3.60262 -0.06244,-2.53609 4.001782,-2.89936 5.359263,-0.88411 0.564498,0.83803 1.070799,3.44736 1.352566,4.5831 0.281767,1.13576 0.640046,2.40268 0.574109,3.57323 -0.64807,-0.0252 -2.454825,-0.10058 -3.917801,-0.47814 z m 7.340197,0.4468 c 0.487116,-2.3501 0.88252,-4.83635 1.423309,-7.05319 0.531583,-2.17909 3.392098,-3.1847 5.062937,-1.76819 1.284277,1.08879 0.349127,2.77138 -0.155829,3.81294 -0.483851,0.99802 -1.421697,3.37244 -1.960857,4.41502 -0.939796,0.30427 -3.039681,0.70923 -4.36956,0.59342 z m -18.991826,-4.92023 c -3.01908,-2.79244 -4.400452,-4.26686 -7.390561,-8.08565 -1.355616,-2.8005 3.266906,-2.81815 2.851299,-0.0249 0.980544,2.12233 3.620903,1.03342 5.404683,1.56455 2.724737,0.82717 3.063834,3.30483 3.531407,4.17354 0.531306,0.98714 2.093209,3.82732 3.438313,5.82624 -4.310692,-1.82715 -6.190212,-2.44768 -7.835141,-3.45377 z m 25.955148,3.87753 c 1.883471,-3.25174 3.885796,-6.38224 5.097842,-8.34852 1.024767,-1.66247 2.890735,-2.49913 4.757832,-2.26417 2.093506,0.49931 3.546093,-1.13432 3.832739,-3.03243 1.969009,-1.9496 3.168766,1.07372 1.515091,2.78811 -1.78065,1.84604 -5.188535,5.17453 -6.655342,6.62 -1.531218,0.77993 -7.003895,4.09427 -8.548162,4.23701 z m -9.501611,-8.20046 c -1.992891,-0.86855 -3.983169,-2.37888 -6.304923,-1.67203 -1.780764,0.43367 -4.233085,1.99128 -5.62401,-0.0192 -1.403747,-1.98088 -4.052778,-2.66861 -6.329499,-1.98343 -2.429559,0.62506 -1.277639,-3.85586 -4.075568,-3.15143 -2.490524,0.65345 -2.993687,-3.15651 -0.64812,-3.50547 1.92772,-0.44161 3.430836,-2.23815 5.617903,-2.1944 0.949455,-0.28253 2.157634,0.10255 2.866254,-0.74494 1.380878,-0.88788 4.217913,-2.545406 5.46968,-1.315232 1.541014,2.558462 -2.641296,1.290852 -3.775596,2.751452 -3.270034,0.2168 -6.466847,1.29112 -9.210894,3.08608 1.186972,0.55041 3.775091,0.65768 4.68842,2.36684 1.612478,0.92331 4.187878,0.0645 5.960158,1.32501 1.151409,0.21152 1.529877,1.9361 2.742334,1.64134 2.737361,-0.46434 5.702261,-0.83271 8.255635,0.56603 1.714531,1.06584 3.262272,-0.84945 5.0006,-0.86165 1.945726,-0.2549 3.884004,0.0287 5.795851,0.33613 1.200981,-0.0609 1.780028,-1.72961 3.077792,-1.89591 1.616088,-0.83659 3.44877,-0.66187 5.204462,-0.68709 0.980614,-1.86748 3.207623,-2.43929 5.15613,-2.61541 -2.087259,-1.53617 -4.618929,-2.48982 -7.161731,-2.98013 -1.952172,-0.002 -3.566788,-1.20033 -5.488426,-1.38651 -1.84272,0.27109 -0.555274,-3.166536 0.936061,-2.001876 1.845994,0.119347 3.461192,1.165376 4.826929,2.252846 2.350241,0.0729 4.89013,0.42411 6.654386,2.12039 2.281471,-0.34018 3.788667,3.51432 0.996465,3.68385 -2.097106,-0.42584 -3.127172,1.25359 -3.429865,2.99515 -2.000773,0.59736 -4.793508,-0.85068 -6.599269,1.0853 -1.185328,1.88818 -3.4831,2.82214 -5.481074,1.50647 -2.079988,-0.97786 -4.482531,-0.44551 -6.328525,0.78558 -0.849288,0.48844 -1.818171,0.75567 -2.79156,0.51237 z"
       id="path516"
       sodipodi:nodetypes="czsszcccsssccccssscccssssccsssssssssssssssscssssssssscsscss" /><path
       id="rect1"
       style="fill:#ffffff;fill-opacity:1;stroke-width:0.371516"
       d="m 59.523823,93.395418 c -2.058199,0 -3.715088,0.828447 -3.715088,1.857542 v 1.857544 h -1.857541 c -1.029098,0 -1.85772,1.657071 -1.85772,3.715256 0,2.05819 0.828622,3.71509 1.85772,3.71509 h 1.197023 c 0,-0.94469 0.06623,-1.66624 0.223386,-2.23591 0.157175,-0.56968 0.418747,-0.99646 0.793149,-1.27847 0.748801,-0.56401 1.779939,-0.53123 3.173126,-0.53123 1.578945,0 2.582856,-0.0345 3.110852,-0.40422 0.264005,-0.184866 0.450563,-0.451309 0.586291,-0.924027 0.135714,-0.472716 0.204761,-1.14343 0.204761,-2.056314 h 0.660168 c 0,0.944699 -0.06563,1.666906 -0.229899,2.239079 -0.16429,0.572172 -0.443238,1.002282 -0.842403,1.281812 -0.798333,0.55904 -1.910808,0.52454 -3.489753,0.52454 -1.393187,0 -2.291278,0.0328 -2.775583,0.39754 -0.242153,0.18239 -0.422816,0.45233 -0.553921,0.92754 -0.131099,0.47522 -0.199305,1.14677 -0.199305,2.05966 h -3.39e-4 v 1.85754 c 0,1.02911 1.656886,1.85772 3.715086,1.85772 2.058188,0 3.715259,-0.82862 3.715259,-1.85772 v -1.25595 h -3.71492 v -0.60106 h 3.714913 v -7.4e-4 h 1.857539 c 1.029085,0 1.857542,-1.6569 1.857542,-3.71509 0,-2.058189 -0.828457,-3.715258 -1.857542,-3.715258 h -1.857539 v -1.85739 c 0,-1.029095 -1.657076,-1.857539 -3.715262,-1.857539 z M 58.1139,94.565707 c 0.379547,2.9e-5 0.687224,0.307706 0.687253,0.687253 -2.9e-5,0.379547 -0.307706,0.687226 -0.687253,0.687258 -0.37955,-2.7e-5 -0.687227,-0.307706 -0.687255,-0.687258 2.8e-5,-0.379547 0.307705,-0.687227 0.687255,-0.687253 z m -2.304814,1.944613 h 3.715086 v 0.600362 h -3.715086 z m 5.124829,9.20082 c 0.37955,2e-5 0.687229,0.3077 0.687258,0.68725 7e-5,0.37962 -0.307638,0.68741 -0.687258,0.68743 -0.379687,7e-5 -0.6875,-0.30774 -0.687431,-0.68743 2.9e-5,-0.37961 0.307814,-0.68732 0.687431,-0.68725 z"
       sodipodi:nodetypes="cscssscsssssccsssssccssscccccssscsccccccccccccccccc" /></g></svg>
