<svg xmlns="http://www.w3.org/2000/svg" width="32" height="32" viewBox="0 0 136.227 163.84" fill="none" xmlns:v="https://vecta.io/nano"><path d="M128.397 37.336a3.54 3.54 0 0 0-2.561-3.387l-24.05-23.236a3.54 3.54 0 0 0-2.726-1.298H37.696c-3.493 0-6.325 2.832-6.325 6.325v17.76H14.153c-3.493 0-6.325 2.832-6.325 6.325v108.273c0 3.493 2.832 6.325 6.325 6.325h84.423c3.48-.02 6.29-2.846 6.29-6.325v-17.701h17.217c3.48-.019 6.29-2.846 6.29-6.325V37.395zm-89.993-3.835V16.496H95.52v21.525a3.54 3.54 0 0 0 3.54 3.54h22.268v81.709h-16.521V61.41a3.54 3.54 0 0 0-2.561-3.387L78.267 34.799a3.46 3.46 0 0 0-2.714-1.298zM79.07 45.868L93.124 58.59H79.07zM14.908 147.356V40.534h57.116v21.572a3.54 3.54 0 0 0 3.54 3.54h22.256v81.709zm13.37-22.669a2.5 2.5 0 0 1 1.876-.873h41.48a2.53 2.53 0 0 1 1.888.861c.486.555.751 1.269.743 2.006.001.738-.268 1.452-.755 2.006a2.55 2.55 0 0 1-1.876.873h-41.48a2.54 2.54 0 0 1-1.888-.861c-1.001-1.15-1.001-2.862 0-4.012zm0-24.853a2.48 2.48 0 0 1 1.865-.873H83.2a2.5 2.5 0 0 1 1.876.873c.488.554.756 1.268.755 2.006.007.737-.257 1.452-.743 2.006-.477.544-1.164.858-1.888.861H30.179c-.72-.005-1.403-.319-1.876-.861a3.02 3.02 0 0 1 0-4.012zm0-25.277c.475-.54 1.157-.853 1.876-.861h24.534c.722-.001 1.41.308 1.888.85a3.08 3.08 0 0 1 0 4.024c-.475.54-1.157.853-1.876.861H30.155c-.722 0-1.409-.31-1.888-.85a3.08 3.08 0 0 1 0-4.024zm74.31-52.773l14.055 12.721h-14.055z" fill="#d4d4d4" stroke="#d4d4d4" stroke-width="3.471"/></svg>