<?xml version="1.0" encoding="UTF-8" standalone="no"?>
<svg
   width="32"
   height="32"
   viewBox="0 0 136.227 163.84"
   fill="none"
   version="1.1"
   id="svg1"
   sodipodi:docname="gear.svg"
   inkscape:version="1.3.2 (091e20e, 2023-11-25, custom)"
   xml:space="preserve"
   xmlns:inkscape="http://www.inkscape.org/namespaces/inkscape"
   xmlns:sodipodi="http://sodipodi.sourceforge.net/DTD/sodipodi-0.dtd"
   xmlns="http://www.w3.org/2000/svg"
   xmlns:svg="http://www.w3.org/2000/svg"><defs
     id="defs1"><inkscape:path-effect
       effect="offset"
       id="path-effect14"
       is_visible="true"
       lpeversion="1.2"
       linejoin_type="miter"
       unit="mm"
       offset="1"
       miter_limit="4"
       attempt_force_join="false"
       update_on_knot_move="true" /></defs><sodipodi:namedview
     id="namedview1"
     pagecolor="#ffffff"
     bordercolor="#666666"
     borderopacity="1.0"
     inkscape:showpageshadow="2"
     inkscape:pageopacity="0.0"
     inkscape:pagecheckerboard="0"
     inkscape:deskcolor="#d1d1d1"
     inkscape:zoom="14.671875"
     inkscape:cx="16.971246"
     inkscape:cy="17.618743"
     inkscape:window-width="1920"
     inkscape:window-height="1129"
     inkscape:window-x="1912"
     inkscape:window-y="-8"
     inkscape:window-maximized="1"
     inkscape:current-layer="svg1" /><path
     style="fill:none;stroke:#d4d4d4;stroke-width:10.44963779;stroke-linecap:butt;stroke-linejoin:round;stroke-dasharray:none;stroke-opacity:1"
     d="M 57.735571,7.5831253 56.21484,11.379808 c 0,0 -3.324506,7.567503 -6.176596,19.449028 L 33.125983,40.603345 C 27.053467,38.377828 18.797984,36.936699 12.572713,36.37543 L 8.7256123,36.028573 -1.4542204,53.674565 1.0751248,56.890028 c 0,0 4.8863778,6.663234 13.7458952,15.077369 V 91.507043 C 9.8590943,95.656907 4.4837497,102.0908 0.8846421,107.20625 l -2.2233237,3.15922 10.1798316,17.64599 4.046953,-0.58439 c 0,0 8.212651,-0.90382 19.922491,-4.37477 l 16.909139,9.76826 c 1.110071,6.37684 3.992192,14.25267 6.620014,19.93024 l 1.623777,3.50608 h 20.356541 l 1.52073,-3.79668 c 0,0 3.324112,-7.56794 6.176595,-19.45528 l 16.91228,-9.76821 c 6.06685,2.22245 14.32756,3.66688 20.55013,4.22791 l 3.8471,0.34682 10.17984,-17.64599 -2.52934,-3.21546 c 0,0 -4.88269,-6.66004 -13.74278,-15.077369 V 72.333005 c 4.95901,-4.148626 10.33144,-10.579908 13.93325,-15.699215 l 2.22331,-3.159215 -10.17981,-17.645992 -4.04696,0.584349 c 0,0 -8.21962,0.903082 -19.91939,4.371655 L 86.335903,31.013199 C 85.225411,24.642353 82.343859,16.767083 79.715889,11.0892 L 78.092112,7.5831234 Z"
     id="path13"
     sodipodi:nodetypes="ccccccccccccccccccccccccc" /><circle
     style="fill:none;stroke:#d4d4d4;stroke-width:10.44963779;stroke-linejoin:round;stroke-dasharray:none;stroke-opacity:1"
     id="path14"
     cx="68.02626"
     cy="81.920021"
     r="18.82649" /></svg>
