<?xml version="1.0" encoding="UTF-8" standalone="no"?>
<svg
   width="32"
   height="32"
   viewBox="0 0 136.227 163.84"
   fill="none"
   version="1.1"
   id="svg1"
   sodipodi:docname="star.svg"
   inkscape:version="1.3.2 (091e20e, 2023-11-25, custom)"
   xmlns:inkscape="http://www.inkscape.org/namespaces/inkscape"
   xmlns:sodipodi="http://sodipodi.sourceforge.net/DTD/sodipodi-0.dtd"
   xmlns="http://www.w3.org/2000/svg"
   xmlns:svg="http://www.w3.org/2000/svg">
  <defs
     id="defs1" />
  <sodipodi:namedview
     id="namedview1"
     pagecolor="#ffffff"
     bordercolor="#666666"
     borderopacity="1.0"
     inkscape:showpageshadow="2"
     inkscape:pageopacity="0.0"
     inkscape:pagecheckerboard="0"
     inkscape:deskcolor="#d1d1d1"
     inkscape:zoom="4.9221261"
     inkscape:cx="16.049975"
     inkscape:cy="15.948393"
     inkscape:window-width="1920"
     inkscape:window-height="1129"
     inkscape:window-x="1912"
     inkscape:window-y="-8"
     inkscape:window-maximized="1"
     inkscape:current-layer="svg1"
     showgrid="false" />
  <path
     id="path3"
     style="fill:#ffe600;stroke-width:1.88976;stroke-linecap:round;stroke-linejoin:round;fill-opacity:1"
     inkscape:transform-center-x="-0.017757199"
     inkscape:transform-center-y="-4.7107011"
     transform="matrix(5.12,0,0,5.12,-13.042633,10.284971)"
     d="M 24.817059,27.869809 C 23.583518,28.761096 17.335681,24.806003 15.813841,24.802012 14.292,24.798021 8.0235046,28.72029 6.7946555,27.822546 5.5658065,26.924801 7.3966357,19.760564 6.9301568,18.311975 6.4636779,16.863385 0.79630663,12.113739 1.2703769,10.667616 1.7444472,9.2214929 9.1237989,8.7488439 10.35734,7.8575573 c 1.23354,-0.8912867 3.999408,-7.74899825 5.521248,-7.74500725 1.521841,0.003991 4.251702,6.87611495 5.480551,7.77385925 1.228849,0.8977442 8.60562,1.4090911 9.072099,2.8576807 0.466479,1.44859 -5.225726,6.168445 -5.699796,7.614568 -0.47407,1.446123 1.319158,8.619864 0.08562,9.511151 z" />
  <path
     id="path12"
     style="color:#000000;fill:#ffd208;stroke-width:5.12;stroke-linecap:round;stroke-linejoin:round;-inkscape-stroke:none;fill-opacity:1"
     d="M -11.0565 63.18 C -11.082428 63.252547 -11.112089 63.315535 -11.1365 63.39 C -12.006409 66.0436 -11.365739 68.293823 -10.5765 70.23 C -9.7872608 72.166182 -8.6685687 73.985295 -7.3365 75.88 C -4.6723627 79.669405 -1.0960563 83.714824 2.5735 87.73 C 6.2430563 91.745177 10.007783 95.708342 12.9235 99.03 C 15.839217 102.35167 17.87605 105.65214 17.8335 105.52 C 17.791 105.38785 18.06303 109.2611 17.6335 113.66 C 17.20399 118.05891 16.460509 123.47801 15.8235 128.88 C 15.186481 134.28199 14.64577 139.64805 14.6935 144.28 C 14.7174 146.59598 14.87461 148.7171 15.3635 150.75 C 15.8524 152.7829 16.628592 154.99266 18.8835 156.64 C 21.138418 158.28734 23.478202 158.3623 25.5635 158.21 C 27.648808 158.05768 29.729902 157.55138 31.9435 156.87 C 36.370706 155.50724 41.320885 153.3692 46.2735 151.12 C 51.226115 148.8708 56.153404 146.50656 60.2135 144.76 C 64.273596 143.01344 68.04232 142.10037 67.9035 142.1 C 67.76469 142.09964 71.532624 143.03217 75.5835 144.8 C 79.634386 146.56783 84.562755 148.95485 89.5035 151.23 C 94.444255 153.50515 99.373514 155.67404 103.7935 157.06 C 106.00351 157.75298 108.07901 158.26677 110.1635 158.43 C 112.24798 158.59323 114.58999 158.5255 116.8535 156.89 C 119.11703 155.25451 119.91394 153.06031 120.4135 151.03 C 120.91305 148.99969 121.07748 146.87582 121.1135 144.56 C 121.1855 139.92836 120.67216 134.55525 120.0635 129.15 C 119.45483 123.74475 118.72994 118.3211 118.3235 113.92 C 117.91707 109.5189 118.21676 105.64809 118.1735 105.78 C 118.1305 105.91189 120.1804 102.61632 123.1135 99.31 C 126.0466 96.003676 129.84293 92.065874 133.5335 88.07 C 137.22407 84.074126 140.80952 80.045381 143.4935 76.27 C 144.83549 74.382309 145.96411 72.572014 146.7635 70.64 C 147.56289 68.70798 148.21948 66.468127 147.3635 63.81 C 146.50754 61.151872 144.67007 59.712499 142.8935 58.61 C 141.11693 57.507501 139.13484 56.689877 136.9435 55.94 C 136.16062 55.672099 135.32768 55.428226 134.4935 55.18 L 103.1835 58.2 C 103.73012 58.320839 104.2433 58.428995 104.8235 58.56 C 109.43808 59.601948 114.83505 60.595264 120.0335 61.66 C 125.23196 62.724739 130.24616 63.87926 133.8135 65.1 C 135.59717 65.710369 137.01285 66.351751 137.7835 66.83 C 137.82414 66.855222 137.80782 66.856086 137.8435 66.88 C 137.8307 66.913704 137.83855 66.903631 137.8235 66.94 C 137.47672 67.778082 136.69582 69.13349 135.6035 70.67 C 133.41884 73.743016 130.0238 77.611861 126.4235 81.51 C 122.82319 85.408143 119.02294 89.351086 115.8835 92.89 C 112.74406 96.428915 110.24036 98.936017 108.9835 102.77 C 107.72663 106.60398 108.25847 110.0993 108.6935 114.81 C 109.12855 119.5207 109.84971 124.95695 110.4435 130.23 C 111.03728 135.50305 111.49212 140.64002 111.4335 144.41 C 111.4043 146.29499 111.23018 147.83928 111.0135 148.72 C 111.00278 148.76358 111.00449 148.75095 110.9935 148.79 C 110.95413 148.78821 110.96682 148.79339 110.9235 148.79 C 110.01929 148.7192 108.49236 148.39407 106.6935 147.83 C 103.09579 146.70188 98.363405 144.6595 93.5435 142.44 C 88.723605 140.2205 83.789346 137.83219 79.4535 135.94 C 75.117654 134.0478 71.968226 132.44058 67.9335 132.43 C 63.898784 132.4192 60.739216 134.01057 56.3935 135.88 C 52.047794 137.74943 47.094985 140.11581 42.2635 142.31 C 37.432025 144.50419 32.697076 146.52077 29.0935 147.63 C 27.291722 148.18461 25.768079 148.49393 24.8635 148.56 C 24.813972 148.56361 24.82791 148.55836 24.7835 148.56 C 24.772706 148.52084 24.773993 148.53363 24.7635 148.49 C 24.55118 147.60823 24.39292 146.06511 24.3735 144.18 C 24.3346 140.40977 24.812061 135.27986 25.4335 130.01 C 26.054929 124.74014 26.80377 119.30836 27.2635 114.6 C 27.72323 109.89164 28.280229 106.39052 27.0435 102.55 C 25.806761 98.709478 23.314327 96.195335 20.1935 92.64 C 17.072673 89.084671 13.293306 85.11697 9.7135 81.2 C 6.1336936 77.283024 2.7520078 73.394434 0.5835 70.31 C -0.50074892 68.767786 -1.2741403 67.419884 -1.6165 66.58 C -1.6314022 66.543441 -1.6238436 66.55386 -1.6365 66.52 C -1.6000946 66.495834 -1.6180601 66.495489 -1.5765 66.47 C -0.80335077 65.995785 0.61665179 65.351005 2.4035 64.75 C 3.0657608 64.527243 3.8298059 64.317707 4.5835 64.1 L -11.0565 63.18 z " />
  <path
     id="path11"
     style="color:#000000;fill:#ffff38;fill-opacity:1;stroke-width:5.12;stroke-linecap:round;stroke-linejoin:round;-inkscape-stroke:none"
     d="m 68.2635,6.02 c -2.79255,-0.00732 -4.73247,1.3010738 -6.33,2.65 -1.59753,1.348927 -2.97967,2.977632 -4.37,4.83 -2.78068,3.704736 -5.5253,8.349286 -8.21,13.08 -2.68471,4.730714 -5.28192,9.540541 -7.54,13.34 -2.25809,3.799459 -4.77252,6.751301 -4.66,6.67 0.11252,-0.0813 -3.48367,1.379159 -7.8,2.33 -4.31634,0.950841 -9.70555,1.90653 -15.04,2.97 -5.33445,1.06347 -10.5995,2.213253 -14.99,3.69 -2.195251,0.738373 -4.177673,1.546834 -5.96,2.64 -1.782326,1.093166 -3.630092,2.516397 -4.5,5.17 -0.398088,1.214343 -0.454066,2.336046 -0.35,3.39 l 10.47,-0.59 c 0.81755,-0.435462 1.94352,-0.943387 3.42,-1.44 3.5737,-1.202042 8.59603,-2.332539 13.8,-3.37 5.20398,-1.037459 10.61002,-1.99227 15.23,-3.01 4.61997,-1.01773 8.10962,-1.57701 11.38,-3.94 3.27038,-2.362991 4.89306,-5.503258 7.31,-9.57 2.41693,-4.066742 5.03096,-8.894994 7.65,-13.51 2.61904,-4.615007 5.26663,-9.024487 7.53,-12.04 1.13168,-1.507756 2.18701,-2.664856 2.88,-3.25 0.0343,-0.02892 0.0282,-0.01488 0.06,-0.04 0.0286,0.02298 0.0195,0.01396 0.05,0.04 0.68991,0.58877 1.73624,1.746329 2.86,3.26 2.24752,3.027342 4.8752,7.46132 7.47,12.09 2.5948,4.62868 5.17443,9.460638 7.57,13.54 2.39558,4.079363 4.00206,7.229889 7.26,9.61 3.25795,2.380111 6.74562,3.002469 11.37,4 7.37668,1.591232 27.05975,5.23216 32.84778,8.14885 l 8.52561,-5.210653 c -2.18292,-3.417517 -7.574,-4.983508 -9.25339,-5.558197 -4.3827,-1.499754 -9.64121,-2.668566 -14.97,-3.76 -5.3288,-1.091434 -10.70871,-2.086533 -15.02,-3.06 -4.31129,-0.973467 -7.90209,-2.45189 -7.79,-2.37 0.11209,0.08189 -2.38188,-2.888749 -4.62,-6.7 -2.23813,-3.811251 -4.82014,-8.62527 -7.48,-13.37 -2.65986,-4.74473 -5.37879,-9.410731 -8.14,-13.13 -1.38061,-1.859635 -2.75957,-3.492713 -4.35,-4.85 -1.59043,-1.3572865 -3.51746,-2.6726766 -6.31,-2.68 z"
     sodipodi:nodetypes="sscsssssssscccsssssscccsssssccsssssssss" />
  <path
     id="path13"
     style="color:#000000;fill:#ffffe9;fill-opacity:1;stroke-width:5.12;stroke-linecap:round;stroke-linejoin:round;-inkscape-stroke:none"
     d="m 68.2435,15.18 c -2.45735,-0.0065 -4.16423,1.142992 -5.57,2.33 -1.40577,1.18701 -2.61656,2.619981 -3.84,4.25 -2.4469,3.26004 -4.86756,7.347135 -7.23,11.51 -2.36245,4.162865 -4.64297,8.396606 -6.63,11.74 -1.98704,3.343392 -4.19901,5.941542 -4.1,5.87 0.099,-0.07155 -3.06178,1.213293 -6.86,2.05 -3.79823,0.836707 -8.54587,1.674183 -13.24,2.61 -4.69413,0.935816 -9.32652,1.950514 -13.19,3.25 -1.93174,0.649743 -3.67161,1.358053 -5.24,2.32 -1.56839,0.961948 -3.19451,2.214921 -3.96,4.55 -0.76549,2.335077 -0.2045,4.316232 0.49,6.02 l 7.88,-3.21 c -0.0148,-0.0363 -0.008,-0.02672 -0.02,-0.06 0.0332,-0.02211 0.0219,-0.01662 0.06,-0.04 0.68034,-0.417292 1.92764,-0.981137 3.5,-1.51 3.14473,-1.057756 7.56068,-2.05707 12.14,-2.97 4.57932,-0.912928 9.34458,-1.754434 13.41,-2.65 4.06542,-0.895567 7.13218,-1.390652 10.01,-3.47 2.87782,-2.07935 4.30318,-4.841408 6.43,-8.42 2.12681,-3.578591 4.42534,-7.818954 6.73,-11.88 2.30466,-4.061046 4.63831,-7.946453 6.63,-10.6 0.99584,-1.326773 1.92019,-2.345093 2.53,-2.86 0.0276,-0.02331 0.0242,-0.0095 0.05,-0.03 0.0258,0.0207 0.0224,0.0065 0.05,0.03 0.6071,0.518096 1.53113,1.538022 2.52,2.87 1.97774,2.663956 4.28667,6.566921 6.57,10.64 2.28333,4.073078 4.55198,8.320304 6.66,11.91 2.10803,3.589699 3.52313,6.365585 6.39,8.46 2.86688,2.094415 5.94934,2.603123 10.01,3.52 4.06067,0.916878 8.80553,1.793069 13.38,2.73 5.07429,1.039306 8.78426,1.296433 14.42,0.73 l 5.7,-3.42 c -1.56332,-0.970161 -3.3117,-1.690134 -5.24,-2.35 -3.85662,-1.319731 -8.48084,-2.339577 -13.17,-3.3 -4.68916,-0.960424 -9.42621,-1.843383 -13.22,-2.7 -3.79378,-0.856617 -6.94864,-2.15206 -6.85,-2.08 0.0986,0.07206 -2.10053,-2.546231 -4.07,-5.9 -1.96948,-3.35377 -4.23942,-7.584802 -6.58,-11.76 -2.34058,-4.175198 -4.73023,-8.287172 -7.16,-11.56 -1.21489,-1.636415 -2.43048,-3.075635 -3.83,-4.27 -1.39952,-1.194366 -3.10266,-2.343556 -5.56,-2.35 z"
     sodipodi:nodetypes="csssssssssscccccsssssssccssssssccssssssssc" />
</svg>
