<?xml version="1.0" encoding="UTF-8" standalone="no"?>
<!-- Created with Inkscape (http://www.inkscape.org/) -->

<svg
   width="90.558922mm"
   height="33.13131mm"
   viewBox="0 0 77.913649 28.504991"
   version="1.1"
   id="svg5"
   xml:space="preserve"
   inkscape:version="1.3.2 (091e20e, 2023-11-25, custom)"
   sodipodi:docname="TartLabLogoHoriz_bluebg.svg"
   inkscape:export-filename="TartLabLogoHoriz_bluebg.png"
   inkscape:export-xdpi="67.73333"
   inkscape:export-ydpi="67.73333"
   xmlns:inkscape="http://www.inkscape.org/namespaces/inkscape"
   xmlns:sodipodi="http://sodipodi.sourceforge.net/DTD/sodipodi-0.dtd"
   xmlns="http://www.w3.org/2000/svg"
   xmlns:svg="http://www.w3.org/2000/svg"><sodipodi:namedview
     id="namedview7"
     pagecolor="#ffffff"
     bordercolor="#666666"
     borderopacity="1.0"
     inkscape:showpageshadow="2"
     inkscape:pageopacity="0.0"
     inkscape:pagecheckerboard="0"
     inkscape:deskcolor="#d1d1d1"
     inkscape:document-units="mm"
     showgrid="false"
     inkscape:zoom="2.455664"
     inkscape:cx="267.54474"
     inkscape:cy="95.493518"
     inkscape:window-width="2560"
     inkscape:window-height="1494"
     inkscape:window-x="-11"
     inkscape:window-y="-11"
     inkscape:window-maximized="1"
     inkscape:current-layer="layer1" /><defs
     id="defs2" /><g
     inkscape:label="Layer 1"
     inkscape:groupmode="layer"
     id="layer1"
     transform="translate(6.0030303,-81.831688)"><rect
       style="fill:#0074c2;fill-opacity:1;stroke-width:0.220775"
       id="rect2"
       width="77.913651"
       height="28.504992"
       x="-6.0030303"
       y="81.831688" /><path
       style="fill:#ffffff;fill-opacity:1;stroke-width:0.0537264"
       d="m 48.647508,105.07547 c -0.161061,-0.34554 -0.940782,-1.51869 -1.090376,-1.90385 -0.149594,-0.38516 -0.899198,-1.35005 -0.91887,-2.14913 -0.03725,-1.512894 2.387243,-1.729602 3.197043,-0.52741 0.336748,0.49992 0.63878,2.0565 0.806866,2.73402 0.168087,0.67753 0.381816,1.43331 0.342482,2.1316 -0.386603,-0.015 -1.464413,-0.06 -2.337145,-0.28523 z m 4.378759,0.26653 c 0.290587,-1.40194 0.526464,-2.8851 0.849068,-4.20754 0.317113,-1.29993 2.02354,-1.899824 3.020272,-1.05481 0.766129,0.64951 0.20827,1.65325 -0.09296,2.27459 -0.288638,0.59537 -0.848106,2.01181 -1.169738,2.63376 -0.560631,0.18151 -1.813309,0.42309 -2.60664,0.354 z m -11.329482,-2.93514 c -1.801018,-1.66581 -2.62507,-2.545375 -4.408804,-4.823455 -0.808686,-1.670622 1.948857,-1.681157 1.700928,-0.01485 0.58494,1.266063 2.160033,0.61648 3.224138,0.933323 1.625428,0.493445 1.827716,1.971482 2.106643,2.489712 0.316949,0.58887 1.248694,2.28317 2.05111,3.47561 -2.571522,-1.08997 -3.692741,-1.46015 -4.674015,-2.06033 z m 15.483419,2.31312 c 1.123575,-1.93981 2.318053,-3.80729 3.041093,-4.980267 0.61132,-0.991738 1.724455,-1.490845 2.838262,-1.35068 1.248872,0.297863 2.115405,-0.676671 2.286403,-1.808978 1.174602,-1.163026 1.890312,0.640518 0.903819,1.663232 -1.062238,1.101245 -3.095195,3.086833 -3.970212,3.949133 -0.913441,0.46526 -4.178139,2.44241 -5.099365,2.52756 z m -5.668141,-4.89194 c -1.188849,-0.518132 -2.37614,-1.41911 -3.761171,-0.997443 -1.062307,0.258704 -2.525228,1.187893 -3.354977,-0.01153 -0.837399,-1.181686 -2.417665,-1.591949 -3.775832,-1.18321 -1.449342,0.37288 -0.76217,-2.30019 -2.431261,-1.879971 -1.48571,0.389815 -1.785869,-1.882997 -0.386633,-2.091166 1.149972,-0.263442 2.046649,-1.335159 3.351334,-1.309059 0.566392,-0.168545 1.287126,0.06117 1.70985,-0.444391 0.823755,-0.529663 2.516175,-1.518451 3.262912,-0.784596 0.919284,1.526238 -1.575654,0.77005 -2.252314,1.641362 -1.950724,0.129329 -3.857767,0.770215 -5.494715,1.840986 0.708082,0.328347 2.252012,0.392338 2.796854,1.41193 0.961915,0.550796 2.498258,0.03849 3.555504,0.790431 0.686867,0.126185 0.91264,1.154973 1.635927,0.979132 1.632959,-0.276998 3.401655,-0.496746 4.924858,0.337663 1.022796,0.635823 1.946093,-0.506734 2.983084,-0.514013 1.160714,-0.152063 2.316985,0.01714 3.457488,0.200515 0.716439,-0.03632 1.061867,-1.03179 1.836042,-1.130993 0.964069,-0.499066 2.057347,-0.394836 3.104697,-0.409881 0.58498,-1.114039 1.913492,-1.455147 3.075864,-1.560212 -1.245144,-0.916394 -2.7554,-1.485291 -4.272295,-1.777783 -1.16456,-9.13e-4 -2.127751,-0.71605 -3.274094,-0.827116 -1.099267,0.161719 -0.331247,-1.888981 0.558402,-1.194208 1.101219,0.0712 2.064757,0.695197 2.879481,1.343926 1.402025,0.04349 2.917185,0.253 3.969643,1.264905 1.361,-0.202928 2.260111,2.096454 0.594436,2.197583 -1.251019,-0.254032 -1.865499,0.747826 -2.04607,1.786744 -1.193552,0.356354 -2.859545,-0.50747 -3.936762,0.647432 -0.707102,1.126384 -2.077826,1.683534 -3.269709,0.898677 -1.240807,-0.583336 -2.674033,-0.265765 -3.775251,0.468637 -0.506639,0.291372 -1.084622,0.450789 -1.665292,0.305647 z"
       id="path516"
       sodipodi:nodetypes="czsszcccsssccccssscccssssccsssssssssssssssscssssssssscsscss" /><path
       d="m 3.1522802,92.933201 q 0.09903,0 0.17105,0.07198 0.072026,0.07198 0.072026,0.171044 v 0.954285 q 0,0.09909 -0.072026,0.171045 -0.072026,0.07198 -0.17105,0.07198 H 1.5678149 v 4.618353 q 0,0.09897 -0.072026,0.171056 -0.072026,0.07198 -0.171051,0.07198 H 0.14539194 q -0.0990298,0 -0.17104991,-0.07198 -0.0720257,-0.07198 -0.0720257,-0.171056 V 94.373537 H -1.6821489 q -0.09903,0 -0.171051,-0.07198 -0.072026,-0.07198 -0.072026,-0.171045 v -0.954285 q 0,-0.09909 0.072026,-0.171044 0.072026,-0.07198 0.171051,-0.07198 z m 3.6280711,3.240956 q 0,-0.495149 -0.5221541,-0.495149 -0.2970871,0 -0.4861423,0.162047 -0.072026,0.07198 -0.1440425,0.09009 -0.072026,0.01799 -0.1800531,0.01799 H 4.3046236 q -0.090032,0 -0.1530457,-0.05399 -0.054019,-0.05399 -0.045011,-0.14404 0.027004,-0.279083 0.3060903,-0.576173 0.2880839,-0.306087 0.7742273,-0.504146 0.4861423,-0.207068 1.0713144,-0.207068 1.0713156,0 1.6024706,0.486151 0.5401594,0.48614 0.5401594,1.31438 v 2.727801 q 0,0.09897 -0.072026,0.171055 -0.072026,0.07198 -0.1710499,0.07198 H 7.0234202 q -0.09903,0 -0.1710499,-0.07198 -0.072026,-0.07198 -0.072026,-0.171055 v -0.252068 q -0.2340691,0.288081 -0.5581647,0.44113 -0.3240945,0.14404 -0.81924,0.14404 -0.7562232,0 -1.1883495,-0.396119 -0.4231243,-0.396119 -0.4231243,-1.0263 0,-0.603176 0.468137,-0.990286 0.4681384,-0.387115 1.4674316,-0.558159 z M 5.952108,97.371501 q -0.2520744,0.04499 -0.3961169,0.162047 -0.1440425,0.108083 -0.1440425,0.270085 0,0.306087 0.4321275,0.306087 0.3961158,0 0.6661955,-0.252068 0.2700797,-0.252079 0.2700797,-0.612185 z m 6.715979,-2.817822 q 0.09903,0 0.171051,0.07198 0.07203,0.07198 0.07203,0.171056 v 0.909263 q 0,0.09897 -0.07203,0.171055 -0.07203,0.07198 -0.171051,0.07198 h -0.81924 q -0.405119,0 -0.621183,0.216066 -0.20706,0.207068 -0.20706,0.612185 v 2.214645 q 0,0.09897 -0.07203,0.171056 -0.07203,0.07198 -0.17105,0.07198 H 9.6431948 q -0.09903,0 -0.171051,-0.07198 -0.072026,-0.07198 -0.072026,-0.171056 v -4.19523 q 0,-0.09908 0.072026,-0.171055 0.072026,-0.07198 0.171051,-0.07198 h 1.0443072 q 0.09903,0 0.171049,0.07198 0.07203,0.07198 0.07203,0.171055 v 0.207058 q 0.468137,-0.450128 1.197352,-0.450128 z m 3.015882,2.853835 q 0,0.432132 0.387114,0.432132 h 0.720211 q 0.09903,0 0.171052,0.07198 0.07203,0.07198 0.07203,0.171055 v 0.909264 q 0,0.09897 -0.07203,0.171055 -0.07203,0.07198 -0.171052,0.07198 h -0.85525 q -0.855252,0 -1.368403,-0.477131 -0.504147,-0.477142 -0.504147,-1.296385 v -1.51245 h -0.666197 q -0.09903,0 -0.17105,-0.07198 -0.07203,-0.07198 -0.07203,-0.171055 v -0.909263 q 0,-0.09909 0.07203,-0.171056 0.07203,-0.07198 0.17105,-0.07198 h 0.666197 v -1.467429 q 0,-0.09909 0.07203,-0.171056 0.07203,-0.07198 0.17105,-0.07198 h 1.134334 q 0.09903,0 0.17105,0.07198 0.07203,0.07198 0.07203,0.171056 v 1.467429 h 1.017299 q 0.09903,0 0.171051,0.07198 0.07203,0.07198 0.07203,0.171056 v 0.909263 q 0,0.09897 -0.07203,0.171055 -0.07203,0.07198 -0.171051,0.07198 h -1.017299 z m 6.634959,0.387121 q 0.09903,0 0.17105,0.07198 0.07203,0.07198 0.07203,0.171056 v 0.954274 q 0,0.09897 -0.07203,0.171055 -0.07203,0.07198 -0.17105,0.07198 h -4.168225 q -0.09903,0 -0.171051,-0.07198 -0.07203,-0.07198 -0.07203,-0.171055 v -5.815707 q 0,-0.09909 0.07203,-0.171045 0.07203,-0.07198 0.171051,-0.07198 h 1.179346 q 0.09903,0 0.17105,0.07198 0.07203,0.07198 0.07203,0.171045 v 4.618364 z m 3.592062,-1.620478 q 0,-0.495149 -0.522154,-0.495149 -0.297087,0 -0.486142,0.162047 -0.07203,0.07198 -0.144043,0.09009 -0.07203,0.01799 -0.180053,0.01799 h -1.143335 q -0.09002,0 -0.153045,-0.05399 -0.05402,-0.05399 -0.04501,-0.14404 0.027,-0.279083 0.306091,-0.576173 0.288085,-0.306087 0.774227,-0.504146 0.486144,-0.207068 1.071315,-0.207068 1.071315,0 1.602471,0.486151 0.540158,0.48614 0.540158,1.31438 v 2.727801 q 0,0.09897 -0.07203,0.171055 -0.07203,0.07198 -0.17105,0.07198 h -1.134334 q -0.09903,0 -0.17105,-0.07198 -0.07203,-0.07198 -0.07203,-0.171055 v -0.252068 q -0.234069,0.288081 -0.558164,0.44113 -0.324096,0.14404 -0.819241,0.14404 -0.756222,0 -1.18835,-0.396119 -0.423124,-0.396119 -0.423124,-1.0263 0,-0.603176 0.468138,-0.990286 0.468137,-0.387122 1.467432,-0.558166 z m -0.828243,1.197344 q -0.252074,0.04499 -0.396117,0.162047 -0.144042,0.108083 -0.144042,0.270085 0,0.306087 0.432127,0.306087 0.396116,0 0.666196,-0.252068 0.270079,-0.252079 0.270079,-0.612185 z m 8.291442,-0.837238 q 0.009,0.08998 0.009,0.360107 0,0.279082 -0.009,0.369103 -0.03601,1.017302 -0.603177,1.539455 -0.558165,0.522153 -1.413415,0.522153 -0.369109,0 -0.612181,-0.08098 -0.234068,-0.07198 -0.369108,-0.180053 -0.126037,-0.108083 -0.270079,-0.279083 v 0.207057 q 0,0.09898 -0.07203,0.171056 -0.07203,0.07198 -0.171051,0.07198 h -1.089315 q -0.09903,0 -0.17105,-0.07198 -0.07203,-0.07198 -0.07203,-0.171056 v -5.905729 q 0,-0.09909 0.07203,-0.171055 0.07203,-0.07198 0.17105,-0.07198 h 1.134333 q 0.09903,0 0.17105,0.07198 0.07203,0.07198 0.07203,0.171055 v 1.917557 q 0.162048,-0.216055 0.450133,-0.378113 0.288084,-0.162047 0.756222,-0.162047 0.864254,0 1.422417,0.531162 0.558165,0.522153 0.594175,1.539455 z m -2.421711,-0.675202 q -0.369109,0 -0.567167,0.216066 -0.198058,0.207057 -0.234069,0.504147 -0.01801,0.180053 -0.01801,0.315096 0,0.135031 0.01801,0.315084 0.04501,0.306098 0.234069,0.513155 0.198058,0.207058 0.567167,0.207058 0.396115,0 0.585172,-0.216066 0.198057,-0.216055 0.225066,-0.567164 0.01801,-0.180053 0.01801,-0.252067 0,-0.07198 -0.01801,-0.252079 -0.027,-0.351098 -0.225066,-0.567164 -0.189057,-0.216066 -0.585172,-0.216066 z"
       id="text1"
       style="font-weight:bold;font-size:8.10449px;line-height:1.25;font-family:Rubik;-inkscape-font-specification:'Rubik, Bold';fill:#ffffff;fill-opacity:1;stroke-width:0.140667"
       aria-label="TartLab" /><path
       id="rect1"
       style="fill:#ffffff;fill-opacity:1;stroke-width:0.221626"
       d="m 51.868065,87.268934 c -1.227809,0 -2.216218,0.494206 -2.216218,1.108108 v 1.108108 h -1.108108 c -0.613903,0 -1.108212,0.988518 -1.108212,2.216321 0,1.227803 0.494309,2.216216 1.108212,2.216216 h 0.71408 c 0,-0.563547 0.03951,-0.993987 0.133266,-1.333822 0.09375,-0.339836 0.249803,-0.594433 0.47315,-0.762663 0.446694,-0.33646 1.061814,-0.316902 1.892913,-0.316902 0.941912,0 1.54079,-0.02057 1.855764,-0.241139 0.15749,-0.110284 0.26878,-0.269224 0.349749,-0.551222 0.08097,-0.281997 0.122144,-0.682107 0.122144,-1.226683 h 0.393818 c 0,0.563554 -0.03915,0.994384 -0.137149,1.335712 -0.098,0.341326 -0.26441,0.597908 -0.502531,0.764657 -0.476242,0.333495 -1.139883,0.312912 -2.081795,0.312912 -0.831099,0 -1.366851,0.01954 -1.655761,0.237153 -0.144456,0.108805 -0.252229,0.269832 -0.330439,0.55332 -0.07821,0.283488 -0.118891,0.684096 -0.118891,1.228677 h -2.02e-4 v 1.108109 c 0,0.613906 0.988408,1.108212 2.216217,1.108212 1.227801,0 2.216319,-0.494306 2.216319,-1.108212 v -0.749231 h -2.216117 v -0.358564 h 2.216112 v -4.39e-4 h 1.108108 c 0.613895,0 1.108107,-0.988416 1.108107,-2.216217 0,-1.227803 -0.494212,-2.216321 -1.108107,-2.216321 h -1.108108 v -1.108017 c 0,-0.613902 -0.98852,-1.108108 -2.216321,-1.108108 z m -0.841083,0.69813 c 0.226418,1.7e-5 0.409961,0.183561 0.409978,0.409978 -1.7e-5,0.226417 -0.18356,0.409961 -0.409978,0.409979 -0.226418,-1.7e-5 -0.409962,-0.183561 -0.409979,-0.409979 1.7e-5,-0.226418 0.183561,-0.409962 0.409979,-0.409978 z m -1.374925,1.16005 h 2.216217 v 0.358142 h -2.216217 z m 3.057193,5.488703 c 0.226418,1.7e-5 0.409962,0.183561 0.409979,0.409979 4.2e-5,0.226459 -0.18352,0.410068 -0.409979,0.410085 -0.226501,4.1e-5 -0.410127,-0.183584 -0.410085,-0.410085 1.7e-5,-0.22646 0.183625,-0.41002 0.410085,-0.409979 z"
       sodipodi:nodetypes="cscssscsssssccsssssccssscccccssscsccccccccccccccccc" /></g></svg>
