<?xml version="1.0" encoding="UTF-8" standalone="no"?>
<!-- Created with Inkscape (http://www.inkscape.org/) -->

<svg
   width="48mm"
   height="48mm"
   viewBox="0 0 41.297479 41.297479"
   version="1.1"
   id="svg5"
   xml:space="preserve"
   inkscape:version="1.3.2 (091e20e, 2023-11-25, custom)"
   sodipodi:docname="TartLabLogoWhite48.svg"
   xmlns:inkscape="http://www.inkscape.org/namespaces/inkscape"
   xmlns:sodipodi="http://sodipodi.sourceforge.net/DTD/sodipodi-0.dtd"
   xmlns="http://www.w3.org/2000/svg"
   xmlns:svg="http://www.w3.org/2000/svg"><sodipodi:namedview
     id="namedview7"
     pagecolor="#ffffff"
     bordercolor="#666666"
     borderopacity="1.0"
     inkscape:showpageshadow="2"
     inkscape:pageopacity="0.0"
     inkscape:pagecheckerboard="0"
     inkscape:deskcolor="#d1d1d1"
     inkscape:document-units="mm"
     showgrid="false"
     inkscape:zoom="3.4728334"
     inkscape:cx="106.2533"
     inkscape:cy="106.10932"
     inkscape:window-width="1920"
     inkscape:window-height="1129"
     inkscape:window-x="1912"
     inkscape:window-y="-8"
     inkscape:window-maximized="1"
     inkscape:current-layer="layer1" /><defs
     id="defs2" /><g
     inkscape:label="Layer 1"
     inkscape:groupmode="layer"
     id="layer1"
     transform="translate(-30.61314,-79.421509)"><path
       style="fill:#ffffff;stroke-width:0.0647378;fill-opacity:1"
       d="m 47.2181,106.77829 c -0.19407,-0.41635 -1.133597,-1.82994 -1.313851,-2.29405 -0.180254,-0.4641 -1.083492,-1.62674 -1.107195,-2.5896 -0.04488,-1.82296 2.876515,-2.084083 3.852286,-0.6355 0.405765,0.60238 0.7697,2.47799 0.972236,3.29437 0.202537,0.81639 0.46007,1.72707 0.412674,2.56847 -0.465838,-0.0181 -1.764549,-0.0723 -2.81615,-0.34369 z m 5.276199,0.32116 c 0.350143,-1.68927 0.634364,-3.47641 1.023087,-5.06989 0.382106,-1.56635 2.43827,-2.289194 3.639285,-1.27099 0.92315,0.78263 0.250956,1.99209 -0.112014,2.74077 -0.347796,0.71739 -1.021928,2.42414 -1.40948,3.17356 -0.675534,0.21871 -2.184951,0.5098 -3.140878,0.42655 z m -13.651493,-3.5367 c -2.170142,-2.00723 -3.163085,-3.06706 -5.312401,-5.812039 -0.974429,-2.013021 2.348281,-2.025715 2.049538,-0.0179 0.704825,1.525547 2.602738,0.74283 3.884935,1.12461 1.958564,0.594579 2.202311,2.375539 2.538406,2.999979 0.381908,0.70956 1.504617,2.75111 2.471491,4.18795 -3.098564,-1.31337 -4.449579,-1.75941 -5.631969,-2.4826 z m 18.656791,2.7872 c 1.353855,-2.33738 2.793145,-4.58761 3.664374,-6.00099 0.736612,-1.194997 2.077887,-1.796398 3.419973,-1.627505 1.504831,0.35891 2.548963,-0.815357 2.755007,-2.179734 1.41534,-1.401391 2.277737,0.771794 1.08906,2.004117 -1.279947,1.326948 -3.729564,3.719492 -4.783919,4.758512 -1.100653,0.56062 -5.034461,2.943 -6.144495,3.0456 z m -6.829843,-5.89456 c -1.432507,-0.624324 -2.863136,-1.70996 -4.532034,-1.201872 -1.28003,0.311727 -3.04278,1.431352 -4.042589,-0.01389 -1.009026,-1.423876 -2.913173,-1.918224 -4.5497,-1.425713 -1.746389,0.449303 -0.918379,-2.77162 -2.929555,-2.265276 -1.79021,0.469708 -2.151888,-2.268923 -0.465874,-2.519757 1.385662,-0.317435 2.466115,-1.608803 4.038199,-1.577354 0.682476,-0.203089 1.550926,0.07371 2.060289,-0.535471 0.992586,-0.638218 3.031872,-1.829662 3.931655,-0.945401 1.107694,1.839045 -1.898588,0.927874 -2.713932,1.977764 -2.350531,0.155836 -4.648428,0.928073 -6.620873,2.218302 0.853206,0.395643 2.713569,0.472748 3.370078,1.701309 1.159062,0.663683 3.010283,0.04638 4.284214,0.952432 0.827643,0.152047 1.099689,1.391688 1.971215,1.179808 1.967639,-0.333769 4.098835,-0.598556 5.934223,0.406868 1.232421,0.766137 2.34495,-0.61059 3.594476,-0.619362 1.398605,-0.183228 2.791857,0.02065 4.16611,0.241612 0.863275,-0.04376 1.279499,-1.243259 2.212344,-1.362794 1.161658,-0.601351 2.479006,-0.475758 3.741014,-0.493887 0.704873,-1.342364 2.305667,-1.753384 3.706271,-1.879982 -1.50034,-1.104212 -3.320127,-1.789706 -5.147915,-2.142145 -1.403239,-0.0011 -2.563839,-0.862806 -3.945129,-0.996636 -1.324564,0.194864 -0.399137,-2.276133 0.672849,-1.438964 1.326916,0.08579 2.487935,0.83768 3.469639,1.619368 1.689374,0.0524 3.51507,0.304853 4.783232,1.52415 1.639942,-0.244518 2.723328,2.526129 0.716268,2.647984 -1.507419,-0.306096 -2.247839,0.901096 -2.465418,2.152943 -1.438174,0.42939 -3.445617,-0.611478 -4.743613,0.780125 -0.852025,1.35724 -2.503683,2.028579 -3.939845,1.082863 -1.495114,-0.702892 -3.222084,-0.320234 -4.549,0.564686 -0.610476,0.35109 -1.306918,0.54318 -2.006599,0.36829 z"
       id="path516"
       sodipodi:nodetypes="czsszcccsssccccssscccssssccsssssssssssssssscssssssssscsscss" /><text
       xml:space="preserve"
       style="font-style:normal;font-variant:normal;font-weight:bold;font-stretch:normal;font-size:8.10449px;line-height:1.25;font-family:Rubik;-inkscape-font-specification:'Rubik, Bold';font-variant-ligatures:normal;font-variant-caps:normal;font-variant-numeric:normal;font-variant-east-asian:normal;stroke-width:0.126633;stroke:none;stroke-opacity:1;fill:#fefefe;fill-opacity:1"
       x="35.968719"
       y="114.73724"
       id="text1"><tspan
         sodipodi:role="line"
         id="tspan1"
         x="35.968719"
         y="114.73724"
         style="font-style:normal;font-variant:normal;font-weight:bold;font-stretch:normal;font-size:8.10449px;font-family:Rubik;-inkscape-font-specification:'Rubik, Bold';font-variant-ligatures:normal;font-variant-caps:normal;font-variant-numeric:normal;font-variant-east-asian:normal;stroke-width:0.126633;stroke:none;stroke-opacity:1;fill:#fefefe;fill-opacity:1">TartLab</tspan></text><path
       id="rect1"
       style="stroke-width:0.267049;fill:#ffffff;fill-opacity:1"
       d="m 51.09872,85.322259 c -1.479452,0 -2.670438,0.595495 -2.670438,1.335218 v 1.335218 h -1.335218 c -0.739724,0 -1.335344,1.191118 -1.335344,2.670562 0,1.479445 0.59562,2.670436 1.335344,2.670436 h 0.860432 c 0,-0.679047 0.04761,-1.197707 0.16058,-1.607192 0.11297,-0.409487 0.301,-0.716264 0.570123,-0.918973 0.538245,-0.405419 1.279436,-0.381852 2.280871,-0.381852 1.13496,0 1.85658,-0.02479 2.236109,-0.290562 0.189768,-0.132887 0.323867,-0.324402 0.421431,-0.664196 0.09756,-0.339793 0.147177,-0.821907 0.147177,-1.478096 h 0.474533 c 0,0.679057 -0.04717,1.198186 -0.165258,1.60947 -0.118085,0.411282 -0.318602,0.720451 -0.605527,0.921376 -0.573849,0.401846 -1.373505,0.377044 -2.508465,0.377044 -1.001435,0 -1.646991,0.02354 -1.995114,0.285759 -0.174062,0.131105 -0.303924,0.325134 -0.398163,0.666724 -0.09424,0.34159 -0.143258,0.824304 -0.143258,1.480498 h -2.44e-4 v 1.335219 c 0,0.739728 1.190985,1.335344 2.670437,1.335344 1.479443,0 2.670561,-0.595616 2.670561,-1.335344 v -0.902788 h -2.670317 v -0.432052 h 2.670311 v -5.3e-4 H 55.1045 c 0.739715,0 1.335217,-1.190994 1.335217,-2.670437 0,-1.479445 -0.595502,-2.670562 -1.335217,-2.670562 h -1.335217 v -1.335108 c 0,-0.739724 -1.19112,-1.335218 -2.670563,-1.335218 z m -1.013465,0.841213 c 0.272823,2.1e-5 0.493983,0.221183 0.494004,0.494005 -2.1e-5,0.272822 -0.221181,0.493984 -0.494004,0.494005 -0.272823,-2e-5 -0.493985,-0.221182 -0.494006,-0.494005 2.1e-5,-0.272823 0.221183,-0.493985 0.494006,-0.494005 z m -1.65672,1.397806 h 2.670437 v 0.431544 h -2.670437 z m 3.683773,6.613629 c 0.272823,2e-5 0.493985,0.221182 0.494006,0.494005 5e-5,0.272873 -0.221133,0.494113 -0.494006,0.494133 -0.272923,5e-5 -0.494183,-0.22121 -0.494133,-0.494133 2.1e-5,-0.272873 0.22126,-0.494055 0.494133,-0.494005 z"
       sodipodi:nodetypes="cscssscsssssccsssssccssscccccssscsccccccccccccccccc" /></g></svg>
