<svg xmlns="http://www.w3.org/2000/svg" width="32" height="32" viewBox="0 0 136.227 163.84" fill="none" xmlns:v="https://vecta.io/nano"><path d="M23.814 8.51a5.225 5.225 0 0 0-5.23 5.22v113.03a5.225 5.225 0 0 0 5.23 5.23h88.6a5.225 5.225 0 0 0 5.23-5.23V38.4a5.225 5.225 0 0 0-1.42-3.58l-23.2-24.67a5.225 5.225 0 0 0-.13-.03 5.225 5.225 0 0 0-3.75-1.61h-65.33zm5.22 10.45h54.95v21.08a5.225 5.225 0 0 0 5.23 5.22h17.98v76.28h-34.24v-8.44a4.838 4.838 0 1 0-9.68 0v8.44h-34.24V18.96zm65.4 7.95l7.43 7.9h-7.43v-7.9zm-26.24 36.56a4.838 4.838 0 0 0-3.43 1.42l-16.49 16.49a4.838 4.838 0 0 0 6.84 6.84l8.16-8.16v4.01 2.27 7.41a4.838 4.838 0 1 0 9.68 0v-7.41-2.27-4.1l8.15 8.21a4.838 4.838 0 1 0 6.86-6.82L71.614 64.9a4.838 4.838 0 0 0-3.42-1.43zm-.08 73.82a4.838 4.838 0 0 0-4.84 4.84v9.67a4.838 4.838 0 1 0 9.68 0v-9.68a4.838 4.838 0 0 0-4.84-4.83z" fill="#d4d4d4"/></svg>