<svg xmlns="http://www.w3.org/2000/svg" width="32" height="32" viewBox="0 0 136.227 163.84" fill="none" stroke="#d4d4d4" stroke-width="10.45" stroke-linejoin="round" xmlns:v="https://vecta.io/nano"><path d="M57.736 7.583l-1.521 3.797s-3.325 7.568-6.177 19.449l-16.912 9.775c-6.073-2.226-14.328-3.667-20.553-4.228l-3.847-.347-10.18 17.646 2.529 3.215s4.886 6.663 13.746 15.077v19.54C9.859 95.657 4.484 102.091.885 107.206l-2.223 3.159 10.18 17.646 4.047-.584s8.213-.904 19.922-4.375l16.909 9.768c1.11 6.377 3.992 14.253 6.62 19.93l1.624 3.506H78.32l1.521-3.797s3.324-7.568 6.177-19.455l16.912-9.768c6.067 2.222 14.328 3.667 20.55 4.228l3.847.347 10.18-17.646-2.529-3.215s-4.883-6.66-13.743-15.077v-19.54c4.959-4.149 10.331-10.58 13.933-15.699l2.223-3.159-10.18-17.646-4.047.584s-8.22.903-19.919 4.372l-16.909-9.771c-1.11-6.371-3.992-14.246-6.62-19.924l-1.624-3.506z"/><circle cx="68.026" cy="81.92" r="18.826"/></svg>